<!DOCTYPE svg PUBLIC "-//W3C//DTD SVG 1.1//EN" "http://www.w3.org/Graphics/SVG/1.1/DTD/svg11.dtd">
<!-- Uploaded to: SVG Repo, www.svgrepo.com, Transformed by: SVG Repo Mixer Tools -->
<svg fill="#242424" width="64px" height="64px" viewBox="0 0 64 64" xmlns="http://www.w3.org/2000/svg" stroke="#242424">
<g id="SVGRepo_bgCarrier" stroke-width="0"/>
<g id="SVGRepo_tracerCarrier" stroke-linecap="round" stroke-linejoin="round"/>
<g id="SVGRepo_iconCarrier">
<title/>
<path d="M42,57H22A15,15,0,0,1,7,42V22A15,15,0,0,1,22,7H35A15,15,0,0,1,50,22v.5A2.5,2.5,0,0,0,52.5,25,4.5,4.5,0,0,1,57,29.5V42A15,15,0,0,1,42,57ZM22,9A13,13,0,0,0,9,22V42A13,13,0,0,0,22,55H42A13,13,0,0,0,55,42V29.5A2.5,2.5,0,0,0,52.5,27,4.5,4.5,0,0,1,48,22.5V22A13,13,0,0,0,35,9Z"/>
<path d="M35.5,27h-11a4.5,4.5,0,0,1,0-9h11a4.5,4.5,0,0,1,0,9Zm-11-7a2.5,2.5,0,0,0,0,5h11a2.5,2.5,0,0,0,0-5Z"/>
<path d="M41.5,45h-17a4.5,4.5,0,0,1,0-9h17a4.5,4.5,0,0,1,0,9Zm-17-7a2.5,2.5,0,0,0,0,5h17a2.5,2.5,0,0,0,0-5Z"/>
</g>
</svg>